<?xml version="1.0" encoding="UTF-8" standalone="no"?>
<!DOCTYPE svg PUBLIC "-//W3C//DTD SVG 1.1//EN" "http://www.w3.org/Graphics/SVG/1.1/DTD/svg11.dtd">
<svg width="100%" height="100%" viewBox="0 0 439 439" version="1.1" xmlns="http://www.w3.org/2000/svg" xmlns:xlink="http://www.w3.org/1999/xlink" xml:space="preserve" xmlns:serif="http://www.serif.com/" style="fill-rule:evenodd;clip-rule:evenodd;stroke-linejoin:round;stroke-miterlimit:1.41421;">
    <g transform="matrix(1,0,0,1,-1231.16,-1485.94)">
        <g transform="matrix(24.3889,0,0,24.3889,1231.16,-489.563)">
            <circle cx="9" cy="90" r="9" style="fill:white;"/>
        </g>
        <g transform="matrix(24.3889,0,0,24.3889,1231.16,-489.563)">
            <path d="M14.951,96.752L6.914,86.4L5.4,86.4L5.4,93.597L6.611,93.597L6.611,87.938L14,97.485C14.333,97.261 14.651,97.017 14.951,96.752Z" style="fill:url(#_Linear1);fill-rule:nonzero;"/>
        </g>
        <g transform="matrix(24.3889,0,0,24.3889,1231.16,-489.563)">
            <rect x="11.5" y="86.4" width="1.2" height="7.2" style="fill:url(#_Linear2);"/>
        </g>
    </g>
    <defs>
        <linearGradient id="_Linear1" x1="0" y1="0" x2="1" y2="0" gradientUnits="userSpaceOnUse" gradientTransform="matrix(3.55,4.4,-4.4,3.55,10.9,92.65)"><stop offset="0" style="stop-color:black;stop-opacity:1"/><stop offset="1" style="stop-color:white;stop-opacity:0"/></linearGradient>
        <linearGradient id="_Linear2" x1="0" y1="0" x2="1" y2="0" gradientUnits="userSpaceOnUse" gradientTransform="matrix(-0.0201,5.2875,-5.2875,-0.0201,12.1,86.4)"><stop offset="0" style="stop-color:black;stop-opacity:1"/><stop offset="1" style="stop-color:white;stop-opacity:0"/></linearGradient>
    </defs>
</svg>
